<svg width="512" height="512" viewBox="0 0 512 512" fill="none" xmlns="http://www.w3.org/2000/svg" role="img" aria-labelledby="title desc"><title id="title">AI Signal Desk signal grid</title><desc id="desc">A grid of signals with one selected high-signal dot.</desc><rect width="512" height="512" rx="112" fill="#080A0F"/><g opacity=".7" stroke="#2A3342" stroke-width="2"><path d="M136 136h240M136 196h240M136 256h240M136 316h240M136 376h240M136 136v240M196 136v240M256 136v240M316 136v240M376 136v240"/></g><circle cx="196" cy="196" r="11" fill="#9AA4B8"/><circle cx="316" cy="196" r="11" fill="#9AA4B8"/><circle cx="196" cy="316" r="11" fill="#9AA4B8"/><circle cx="316" cy="316" r="11" fill="#9AA4B8"/><circle cx="256" cy="256" r="22" fill="#58E6FF"/><circle cx="256" cy="256" r="56" stroke="#58E6FF" stroke-opacity=".32" stroke-width="4"/><circle cx="256" cy="256" r="100" stroke="#58E6FF" stroke-opacity=".14" stroke-width="4"/><path d="M256 140v48M256 324v48M140 256h48M324 256h48" stroke="#F6C85F" stroke-width="4" stroke-linecap="round"/></svg>