<svg width="512" height="512" viewBox="0 0 512 512" fill="none" xmlns="http://www.w3.org/2000/svg" role="img" aria-labelledby="title desc"><title id="title">AI Signal Desk aperture mark</title><desc id="desc">A minimal signal aperture with scanner sweep.</desc><rect width="512" height="512" rx="112" fill="#080A0F"/><circle cx="256" cy="256" r="148" fill="#111722" stroke="#2A3342" stroke-width="2"/><path d="M256 108a148 148 0 0 1 128 74H256V108Z" fill="#58E6FF" fill-opacity=".22"/><path d="M384 182a148 148 0 0 1 0 148l-64-111 64-37Z" fill="#F6C85F" fill-opacity=".32"/><path d="M384 330a148 148 0 0 1-128 74l64-111 64 37Z" fill="#78F0B2" fill-opacity=".24"/><path d="M256 404a148 148 0 0 1-128-74h128v74Z" fill="#9B87FF" fill-opacity=".22"/><path d="M128 330a148 148 0 0 1 0-148l64 111-64 37Z" fill="#58E6FF" fill-opacity=".16"/><circle cx="256" cy="256" r="48" fill="#080A0F" stroke="#58E6FF" stroke-width="2"/><circle cx="256" cy="256" r="10" fill="#58E6FF"/></svg>